<?xml version="1.0" standalone="no"?>
<!DOCTYPE svg PUBLIC "-//W3C//DTD SVG 20010904//EN"
 "http://www.w3.org/TR/2001/REC-SVG-20010904/DTD/svg10.dtd">
<svg version="1.0" xmlns="http://www.w3.org/2000/svg"
 width="348.000000pt" height="348.000000pt" viewBox="0 0 348.000000 348.000000"
 preserveAspectRatio="xMidYMid meet">

<g transform="translate(0.000000,348.000000) scale(0.100000,-0.100000)"
fill="#000000" stroke="none">
<path d="M547 2403 c-4 -3 -7 -42 -7 -85 l0 -78 140 0 140 0 0 -520 0 -520 80
0 80 0 0 605 0 605 -213 0 c-118 0 -217 -3 -220 -7z"/>
<path d="M1715 2404 c-103 -21 -134 -29 -183 -51 -160 -70 -263 -185 -334
-370 -32 -82 -32 -261 -1 -348 36 -102 75 -167 143 -236 84 -84 146 -124 253
-162 61 -21 73 -21 790 -24 l727 -4 0 81 0 80 -694 0 c-676 0 -696 1 -762 21
-152 47 -260 158 -298 305 -54 209 44 414 241 507 64 30 75 32 178 32 95 0
118 -4 165 -25 151 -67 243 -181 272 -340 l12 -60 78 0 78 0 0 43 c0 63 -35
177 -75 245 -46 78 -122 162 -188 205 -114 75 -298 121 -402 101z"/>
<path d="M355 2167 c-4 -12 -5 -50 -3 -82 l3 -60 115 -5 115 -5 3 -407 2 -408
85 0 85 0 -2 493 -3 492 -197 3 -198 2 -5 -23z"/>
<path d="M1654 2170 c-106 -37 -186 -109 -233 -209 -23 -49 -26 -68 -25 -156
0 -92 3 -105 31 -160 18 -33 47 -76 65 -96 45 -50 143 -106 200 -114 26 -4
355 -8 730 -8 l683 -1 3 82 3 82 -695 0 c-406 0 -705 4 -719 9 -14 5 -41 24
-61 42 -126 110 -99 299 51 365 63 28 107 30 165 8 77 -30 147 -117 148 -181
0 -22 4 -23 78 -23 43 0 81 2 84 5 3 3 1 30 -4 61 -20 131 -122 249 -253 294
-73 25 -181 25 -251 0z"/>
</g>
</svg>
